<svg width="24" height="24" viewBox="0 0 24 24" fill="none" xmlns="http://www.w3.org/2000/svg">
<path fill-rule="evenodd" clip-rule="evenodd" d="M15.7073 11.2929C15.8948 11.4805 16.0001 11.7348 16.0001 11.9999C16.0001 12.2651 15.8948 12.5194 15.7073 12.7069L10.0503 18.3639C9.9581 18.4594 9.84775 18.5356 9.72575 18.588C9.60374 18.6404 9.47252 18.668 9.33974 18.6692C9.20696 18.6703 9.07529 18.645 8.95239 18.5948C8.82949 18.5445 8.71784 18.4702 8.62395 18.3763C8.53006 18.2824 8.4558 18.1708 8.40552 18.0479C8.35524 17.925 8.32994 17.7933 8.33109 17.6605C8.33225 17.5278 8.35983 17.3965 8.41224 17.2745C8.46465 17.1525 8.54083 17.0422 8.63634 16.9499L13.5863 11.9999L8.63634 7.04994C8.45418 6.86133 8.35339 6.60873 8.35567 6.34653C8.35795 6.08434 8.46312 5.83353 8.64852 5.64812C8.83393 5.46271 9.08474 5.35754 9.34694 5.35526C9.60914 5.35298 9.86174 5.45378 10.0503 5.63594L15.7073 11.2929Z" fill="#6A6A6A"/>
</svg>
