<svg width="80" height="80" viewBox="0 0 80 80" fill="none" xmlns="http://www.w3.org/2000/svg">
    <path fill-rule="evenodd" clip-rule="evenodd"
        d="M58.3598 14.503C53.2657 10.8366 47.1904 8.77967 40.9168 8.59728C34.6431 8.41488 28.4586 10.1154 23.1601 13.4796C17.8617 16.8439 13.6921 21.7178 11.1886 27.4732C8.68519 33.2286 7.96263 39.6018 9.11405 45.7716C9.30375 46.88 9.05016 48.0186 8.40799 48.9418C7.76581 49.865 6.78651 50.4988 5.68128 50.7065C4.57606 50.9142 3.43348 50.6792 2.49997 50.0521C1.56647 49.425 0.916836 48.4561 0.691192 47.3544C-0.797919 39.3851 0.170119 31.1513 3.46698 23.7446C6.76385 16.3379 12.2338 10.1081 19.1519 5.88093C26.0699 1.65376 34.1093 -0.371127 42.2043 0.0746923C50.2994 0.520512 58.0678 3.41598 64.4798 8.37728L67.9769 4.88014C68.3762 4.47988 68.8852 4.20706 69.4396 4.09621C69.9939 3.98536 70.5687 4.04147 71.0912 4.25743C71.6137 4.47339 72.0603 4.8395 72.3746 5.30942C72.6889 5.77934 72.8568 6.33194 72.8569 6.89728V20.0001C72.8569 20.7579 72.5559 21.4846 72.0201 22.0204C71.4843 22.5563 70.7575 22.8573 69.9998 22.8573H56.8969C56.3327 22.856 55.7816 22.6878 55.3129 22.3738C54.8442 22.0597 54.4789 21.614 54.2632 21.0927C54.0475 20.5714 53.9909 19.9979 54.1006 19.4445C54.2104 18.8911 54.4815 18.3825 54.8798 17.983L58.3598 14.503ZM74.3083 29.2287C75.4253 29.0181 76.5801 29.2597 77.5189 29.9006C78.4576 30.5414 79.1034 31.5289 79.314 32.6459C80.8044 40.6162 79.837 48.8512 76.54 56.2592C73.243 63.6671 67.7722 69.8978 60.853 74.1254C53.9338 78.3529 45.893 80.3774 37.7969 79.9305C29.7007 79.4836 21.9316 76.5864 15.5198 71.623L12.0226 75.1259C11.623 75.5265 11.1135 75.7994 10.5586 75.9101C10.0037 76.0207 9.42839 75.9641 8.90569 75.7475C8.38298 75.5308 7.93638 75.1638 7.62251 74.693C7.30863 74.2222 7.14161 73.6688 7.14262 73.103V60.0001C7.14262 59.2424 7.44364 58.5157 7.97946 57.9798C8.51528 57.444 9.242 57.143 9.99976 57.143H23.1026C23.6685 57.142 24.2218 57.309 24.6926 57.6229C25.1634 57.9368 25.5304 58.3834 25.7471 58.9061C25.9638 59.4288 26.0204 60.004 25.9097 60.5589C25.799 61.1138 25.5261 61.6234 25.1255 62.023L21.6398 65.503C26.7338 69.1694 32.8091 71.2263 39.0828 71.4087C45.3564 71.5911 51.5409 69.8906 56.8394 66.5264C62.1379 63.1621 66.3075 58.2882 68.8109 52.5328C71.3143 46.7774 72.0369 40.4042 70.8855 34.2344C70.7813 33.6806 70.7874 33.1116 70.9034 32.5601C71.0194 32.0086 71.243 31.4854 71.5615 31.0204C71.88 30.5555 72.287 30.1579 72.7593 29.8504C73.2317 29.543 73.76 29.3317 74.314 29.2287H74.3083ZM35.3198 23.0516C36.4055 18.0801 43.4741 18.0573 44.6055 23.0059L44.6626 23.2573C45.2738 26.2996 46.7904 29.0861 49.0135 31.2511C51.2366 33.4161 54.0623 34.8584 57.1198 35.3887C62.2855 36.2859 62.2855 43.7144 57.114 44.6116C54.1255 45.1314 51.3573 46.5229 49.1572 48.6111C46.9571 50.6994 45.4232 53.3914 44.7483 56.3487L44.6055 56.9944C43.4741 61.9487 36.4055 61.9144 35.3198 56.9544L35.1998 56.4001C34.5499 53.4329 33.031 50.7264 30.8368 48.6258C28.6426 46.5253 25.8725 45.1258 22.8798 44.6059C17.7198 43.7087 17.7198 36.2973 22.8798 35.4001C25.8626 34.8807 28.6241 33.4874 30.8144 31.3969C33.0046 29.3064 34.5249 26.6127 35.1826 23.6573L35.2741 23.2516L35.3198 23.0516Z"
        fill="#A755FF" />
</svg>
