<svg width="24" height="24" viewBox="0 0 24 24" fill="none" xmlns="http://www.w3.org/2000/svg">
<path fill-rule="evenodd" clip-rule="evenodd" d="M5.84032 9.85591C7.63107 13.7544 10.8128 16.8437 14.7623 18.5189L14.7743 18.5239L15.5383 18.8639C16.0102 19.0744 16.5402 19.116 17.0391 18.9818C17.5381 18.8475 17.9757 18.5457 18.2783 18.1269L19.5523 16.3639C19.5898 16.312 19.6059 16.2477 19.5973 16.1842C19.5888 16.1208 19.5562 16.0631 19.5063 16.0229L17.2823 14.2279C17.2561 14.2067 17.2258 14.1911 17.1934 14.1819C17.1609 14.1728 17.127 14.1702 17.0935 14.1745C17.0601 14.1788 17.0278 14.1899 16.9988 14.2069C16.9697 14.224 16.9444 14.2468 16.9243 14.2739L16.0583 15.4419C15.9563 15.5797 15.8101 15.6784 15.6442 15.7215C15.4782 15.7646 15.3025 15.7496 15.1463 15.6789C12.1874 14.3385 9.81676 11.9679 8.47632 9.00891C8.40563 8.85271 8.39059 8.67699 8.43371 8.51105C8.47684 8.3451 8.57552 8.19894 8.71332 8.09691L9.88032 7.22991C9.90744 7.20987 9.93022 7.18455 9.9473 7.15548C9.96437 7.1264 9.97539 7.09417 9.97969 7.06073C9.98399 7.02728 9.98147 6.99331 9.9723 6.96087C9.96313 6.92842 9.94749 6.89816 9.92632 6.87191L8.13232 4.64791C8.09218 4.59804 8.03444 4.56547 7.97099 4.55692C7.90755 4.54836 7.84324 4.56446 7.79132 4.60191L6.01832 5.88191C5.59672 6.18602 5.29342 6.62673 5.15998 7.12915C5.02654 7.63156 5.07118 8.16469 5.28632 8.63791L5.84032 9.85591ZM14.1703 19.8969C9.87942 18.0749 6.42292 14.7172 4.47732 10.4809L4.47532 10.4789L3.92132 9.25891C3.56274 8.47035 3.48823 7.58196 3.71045 6.74468C3.93266 5.90741 4.4379 5.17288 5.14032 4.66591L6.91332 3.38591C7.27645 3.12383 7.72623 3.01094 8.17008 3.07047C8.61394 3.12999 9.01808 3.35741 9.29932 3.70591L11.0943 5.93091C11.2425 6.11449 11.3519 6.32611 11.4162 6.55307C11.4805 6.78003 11.4982 7.01764 11.4683 7.25163C11.4384 7.48561 11.3615 7.71114 11.2423 7.91465C11.123 8.11817 10.9638 8.29547 10.7743 8.43591L10.1043 8.93191C11.2371 11.1283 13.026 12.9171 15.2223 14.0499L15.7193 13.3799C15.8598 13.1905 16.037 13.0315 16.2404 12.9123C16.4439 12.7932 16.6693 12.7163 16.9031 12.6864C17.137 12.6566 17.3745 12.6742 17.6014 12.7384C17.8282 12.8026 18.0398 12.9119 18.2233 13.0599L20.4483 14.8549C20.7971 15.1362 21.0247 15.5405 21.0842 15.9846C21.1438 16.4287 21.0307 16.8787 20.7683 17.2419L19.4943 19.0059C18.99 19.7038 18.2609 20.207 17.4294 20.4308C16.598 20.6546 15.7148 20.5854 14.9283 20.2349L14.1703 19.8969Z" fill="#6A6A6A"/>
</svg>
