<svg width="24" height="24" viewBox="0 0 24 24" fill="none" xmlns="http://www.w3.org/2000/svg">
<g clip-path="url(#clip0_2640_11773)">
<path d="M21.6244 20.25H15.4714C15.2725 20.25 15.0817 20.171 14.9411 20.0303C14.8004 19.8897 14.7214 19.6989 14.7214 19.5C14.7214 19.3011 14.8004 19.1103 14.9411 18.9697C15.0817 18.829 15.2725 18.75 15.4714 18.75H21.6244C21.8233 18.75 22.0141 18.829 22.1547 18.9697C22.2954 19.1103 22.3744 19.3011 22.3744 19.5C22.3744 19.6989 22.2954 19.8897 22.1547 20.0303C22.0141 20.171 21.8233 20.25 21.6244 20.25ZM11.9599 13.7445C8.17091 13.7445 5.08691 10.662 5.08691 6.8715C5.08691 3.081 8.16941 0 11.9599 0C15.7504 0 18.8314 3.0825 18.8314 6.873C18.8314 10.6635 15.7489 13.7445 11.9599 13.7445ZM11.9599 1.5C8.99741 1.5 6.58691 3.909 6.58691 6.873C6.58691 9.837 8.99741 12.246 11.9599 12.246C14.9224 12.246 17.3314 9.837 17.3314 6.873C17.3314 3.909 14.9209 1.5 11.9599 1.5Z" fill="#C2C2C2"/>
<path d="M17.4675 14.0954C17.3269 14.0953 17.1892 14.0558 17.07 13.9814C16.3614 13.5384 15.5979 13.19 14.799 12.9449C14.6091 12.8861 14.4503 12.7544 14.3575 12.5786C14.2647 12.4028 14.2454 12.1973 14.304 12.0074C14.3322 11.9128 14.379 11.8247 14.4417 11.7484C14.5043 11.672 14.5815 11.6089 14.6687 11.5627C14.756 11.5165 14.8516 11.4881 14.9499 11.4792C15.0482 11.4703 15.1474 11.4811 15.2415 11.5109C16.1638 11.7948 17.0453 12.1977 17.8635 12.7094C18.0015 12.7956 18.1077 12.9244 18.1661 13.0763C18.2245 13.2282 18.2319 13.395 18.1871 13.5514C18.1424 13.7079 18.0481 13.8456 17.9182 13.9437C17.7884 14.0418 17.6302 14.0951 17.4675 14.0954ZM1.5 22.9289C1.30109 22.9289 1.11032 22.8499 0.96967 22.7092C0.829018 22.5686 0.75 22.3778 0.75 22.1789C0.75 17.2454 3.93 12.9584 8.664 11.5109C8.75904 11.4789 8.85952 11.4663 8.95952 11.4738C9.05951 11.4813 9.15698 11.5088 9.24617 11.5546C9.33535 11.6005 9.41444 11.6638 9.47875 11.7407C9.54306 11.8176 9.59128 11.9067 9.62057 12.0026C9.64987 12.0985 9.65963 12.1993 9.64929 12.299C9.63894 12.3988 9.6087 12.4954 9.56036 12.5833C9.51201 12.6711 9.44653 12.7484 9.36781 12.8105C9.28908 12.8726 9.19869 12.9183 9.102 12.9449C7.11742 13.5403 5.37826 14.7608 4.14357 16.4248C2.90888 18.0887 2.24471 20.1069 2.25 22.1789C2.25 22.3778 2.17098 22.5686 2.03033 22.7092C1.88968 22.8499 1.69891 22.9289 1.5 22.9289ZM18.75 23.9999C16.269 23.9999 14.25 21.9809 14.25 19.4999C14.25 17.0189 16.269 14.9999 18.75 14.9999C21.231 14.9999 23.25 17.0189 23.25 19.4999C23.25 21.9809 21.231 23.9999 18.75 23.9999ZM18.75 16.4999C17.0955 16.4999 15.75 17.8454 15.75 19.4999C15.75 21.1544 17.0955 22.4999 18.75 22.4999C20.4045 22.4999 21.75 21.1544 21.75 19.4999C21.75 17.8454 20.4045 16.4999 18.75 16.4999Z" fill="#C2C2C2"/>
</g>
<defs>
<clipPath id="clip0_2640_11773">
<rect width="24" height="24" fill="white"/>
</clipPath>
</defs>
</svg>
