<svg width="32" height="32" viewBox="0 0 32 32" fill="none" xmlns="http://www.w3.org/2000/svg">
<path d="M28.0002 4.5C27.8483 4.49999 27.6983 4.5346 27.5618 4.6012C27.4252 4.6678 27.3056 4.76464 27.2121 4.88438C25.7833 6.71375 24.4577 8.12563 22.6296 9.07188C20.9377 9.945 18.8127 10.4006 16.0002 10.4856V5.5C15.9996 5.30481 15.9419 5.11406 15.8342 4.95127C15.7265 4.78848 15.5735 4.66078 15.3941 4.58389C15.2147 4.50701 15.0167 4.48432 14.8245 4.51861C14.6324 4.5529 14.4544 4.64268 14.3127 4.77688L3.3127 15.2769C3.21495 15.3702 3.13714 15.4825 3.08398 15.6068C3.03083 15.731 3.00342 15.8648 3.00342 16C3.00342 16.1352 3.03083 16.269 3.08398 16.3932C3.13714 16.5175 3.21495 16.6298 3.3127 16.7231L14.3127 27.2231C14.4544 27.3573 14.6324 27.4471 14.8245 27.4814C15.0167 27.5157 15.2147 27.493 15.3941 27.4161C15.5735 27.3392 15.7265 27.2115 15.8342 27.0487C15.9419 26.8859 15.9996 26.6952 16.0002 26.5V21.4775C20.6339 21.2644 24.0865 19.5456 26.2721 16.3606C28.0827 13.7225 29.0002 10.0688 29.0002 5.5C29.0002 5.23479 28.8948 4.98043 28.7073 4.79289C28.5198 4.60536 28.2654 4.5 28.0002 4.5Z" fill="white"/>
</svg>
