<svg width="18" height="21" viewBox="0 0 18 21" fill="none" xmlns="http://www.w3.org/2000/svg">
<path d="M8.88299 2.07946C10.5633 3.68936 13.0179 4.32142 15.7889 5.03486C15.9486 5.0759 16.1104 5.11763 16.2738 5.15983V7.67738C16.2738 9.0849 16.0826 10.5013 15.7054 11.8874C15.3368 13.2417 14.8122 14.4898 14.1466 15.597C13.4877 16.6928 12.7295 17.5844 11.8934 18.2467C11.0695 18.8996 10.2033 19.2989 9.31875 19.4339L8.94641 19.4908L8.46379 19.4183C7.57736 19.285 6.70934 18.8867 5.88353 18.2346C5.04559 17.5729 4.28575 16.6816 3.62524 15.5853C2.95773 14.4779 2.43198 13.2289 2.06221 11.8736C1.68404 10.4864 1.49216 9.06835 1.49216 7.65919V5.16006C1.65559 5.11763 1.81763 5.07613 1.97734 5.03486C4.74832 4.32142 7.20292 3.68936 8.88299 2.07946ZM8.88299 0C8.75033 0 8.61767 0.0638829 8.53187 0.191416C7.04904 2.40167 4.08011 2.92439 0.323611 3.92367C0.133362 3.97427 0 4.15309 0 4.3585V7.65943C0 13.9146 3.51193 20.1828 8.24206 20.8939L8.94804 21L9.54374 20.9091C14.2648 20.1889 17.766 13.9248 17.766 7.67761V4.3585C17.766 4.15309 17.6324 3.97427 17.4424 3.92367C13.6859 2.92439 10.7169 2.40167 9.23411 0.191416C9.14855 0.0636498 9.01565 0 8.88299 0Z" fill="#6A6A6A"/>
<path d="M8.81443 14.0125C8.61638 14.0125 8.42624 13.9348 8.28483 13.7961L4.61113 10.1898C4.31325 9.89732 4.30877 9.41874 4.60121 9.12087C4.89365 8.82299 5.37223 8.8185 5.6701 9.11095L8.78302 12.1667L13.3388 7.15008C13.6194 6.8411 14.0975 6.81795 14.4065 7.09858C14.7155 7.37921 14.7386 7.85732 14.458 8.1663L9.37381 13.7647C9.3054 13.84 9.22251 13.9007 9.13009 13.9432C9.03766 13.9857 8.93761 14.0091 8.83593 14.012C8.82884 14.0125 8.82152 14.0125 8.81443 14.0125Z" fill="#6A6A6A"/>
</svg>
